Coordinates
version=1
nRows=24
nColumns=38
inDegrees=no

Units are S.I. units (second, meters, Newtons, ...)
If the header above contains a line with 'inDegrees', this indicates whether rotational values are in degrees (yes) or radians (no).

endheader
time	pelvis_tilt	pelvis_list	pelvis_rotation	pelvis_tx	pelvis_ty	pelvis_tz	hip_flexion_r	hip_adduction_r	hip_rotation_r	knee_angle_r	ankle_angle_r	subtalar_angle_r	mtp_angle_r	hip_flexion_l	hip_adduction_l	hip_rotation_l	knee_angle_l	ankle_angle_l	subtalar_angle_l	mtp_angle_l	lumbar_extension	lumbar_bending	lumbar_rotation	arm_flex_r	arm_add_r	arm_rot_r	elbow_flex_r	pro_sup_r	wrist_flex_r	wrist_dev_r	arm_flex_l	arm_add_l	arm_rot_l	elbow_flex_l	pro_sup_l	wrist_flex_l	wrist_dev_l
2.32	-0.152787	1.31022	-1.38228	0.623837	-0.339843	1.00824	0.201755	0.0624286	-0.127152	0.649525	-0.221619	0	0	-0.33619	-0.150804	-0.251372	0.935463	-0.215914	0	0	-0.466728	0.240168	0.29642	-0.115883	-0.543745	-0.15148	1.68085	0.542381	0	0	0.464082	-0.352875	0.476841	0.887039	0.652754	0	0
2.33	-0.170837	1.31031	-1.35747	0.621989	-0.350369	1.00889	0.19113	0.0699037	-0.134845	0.647218	-0.212733	0	0	-0.308142	-0.161416	-0.231045	0.994343	-0.226993	0	0	-0.467306	0.245958	0.296493	-0.12028	-0.544347	-0.152519	1.68413	0.539181	0	0	0.465794	-0.354489	0.482261	0.887863	0.650216	0	0
2.34	-0.185167	1.31099	-1.33734	0.620104	-0.360785	1.00942	0.181412	0.0770187	-0.138914	0.647282	-0.202489	0	0	-0.280266	-0.169487	-0.211784	1.04994	-0.233024	0	0	-0.467224	0.250125	0.296948	-0.124002	-0.545165	-0.153653	1.68711	0.536378	0	0	0.466293	-0.35642	0.485873	0.890637	0.648881	0	0
2.35	-0.193632	1.31143	-1.32477	0.618195	-0.371018	1.01004	0.171566	0.083194	-0.138767	0.648408	-0.193129	0	0	-0.254305	-0.174565	-0.195248	1.10014	-0.230787	0	0	-0.467917	0.252051	0.297962	-0.125634	-0.546434	-0.154904	1.68897	0.535702	0	0	0.465934	-0.358466	0.487169	0.894696	0.647764	0	0
2.36	-0.197478	1.31071	-1.31893	0.616256	-0.381103	1.01092	0.160539	0.088595	-0.136706	0.649056	-0.186911	0	0	-0.231639	-0.177387	-0.182695	1.14401	-0.220238	0	0	-0.470197	0.252308	0.299722	-0.124998	-0.547982	-0.155146	1.68925	0.537485	0	0	0.464845	-0.360663	0.486715	0.899346	0.647451	0	0
2.37	-0.198527	1.30887	-1.31811	0.614328	-0.391103	1.01204	0.148011	0.0936822	-0.133622	0.647833	-0.176059	0	0	-0.212236	-0.178185	-0.174631	1.18175	-0.194108	0	0	-0.473712	0.251636	0.301599	-0.121889	-0.557465	-0.145835	1.68894	0.503906	0	0	0.462168	-0.363181	0.483855	0.904599	0.646979	0	0
2.38	-0.194011	1.30589	-1.32467	0.612375	-0.401082	1.01346	0.133474	0.0976149	-0.129833	0.644484	-0.169552	0	0	-0.195887	-0.176334	-0.170769	1.2126	-0.172329	0	0	-0.479192	0.248869	0.305679	-0.120293	-0.561427	-0.141724	1.68855	0.49801	0	0	0.460586	-0.364693	0.481627	0.908809	0.647281	0	0
2.39	-0.184969	1.30247	-1.3368	0.610456	-0.411062	1.01505	0.117313	0.100157	-0.125811	0.639615	-0.162634	0	0	-0.180927	-0.172206	-0.169633	1.23822	-0.152358	0	0	-0.484978	0.244559	0.309851	-0.118094	-0.564733	-0.137107	1.68721	0.492758	0	0	0.459166	-0.365826	0.479135	0.911884	0.647352	0	0
2.4	-0.17269	1.29974	-1.35264	0.608626	-0.42106	1.01673	0.10054	0.101073	-0.122141	0.63391	-0.156937	0	0	-0.165065	-0.166339	-0.169706	1.25973	-0.139138	0	0	-0.489788	0.23898	0.314308	-0.116303	-0.566731	-0.133969	1.68528	0.489331	0	0	0.45839	-0.365907	0.477397	0.912864	0.647211	0	0
2.41	-0.160217	1.29819	-1.36849	0.606979	-0.431024	1.01839	0.0831022	0.101375	-0.118233	0.625289	-0.150124	0	0	-0.147193	-0.159758	-0.169555	1.27841	-0.127454	0	0	-0.49304	0.233337	0.318908	-0.115104	-0.568598	-0.132147	1.68311	0.486181	0	0	0.458248	-0.364747	0.476447	0.911772	0.648633	0	0
2.42	-0.147953	1.29746	-1.38323	0.605581	-0.440871	1.02004	0.0655337	0.1012	-0.115618	0.614721	-0.143805	0	0	-0.127662	-0.152878	-0.168354	1.29398	-0.117879	0	0	-0.495486	0.228294	0.32332	-0.115247	-0.570298	-0.131563	1.68198	0.483752	0	0	0.459154	-0.362621	0.476722	0.909137	0.64964	0	0
2.43	-0.135962	1.29636	-1.39655	0.604393	-0.450594	1.02175	0.0468232	0.10111	-0.114657	0.601826	-0.138347	0	0	-0.107747	-0.146592	-0.166977	1.30599	-0.110028	0	0	-0.498074	0.224084	0.326462	-0.114683	-0.572485	-0.130488	1.68094	0.483055	0	0	0.460375	-0.360331	0.47714	0.906005	0.649412	0	0
2.44	-0.125616	1.29502	-1.40786	0.603361	-0.460252	1.02348	0.0275686	0.101621	-0.114301	0.587044	-0.134015	0	0	-0.0877846	-0.141698	-0.167118	1.31414	-0.103247	0	0	-0.500513	0.220703	0.32864	-0.112707	-0.574946	-0.128649	1.67925	0.483461	0	0	0.461203	-0.357958	0.476936	0.902638	0.648529	0	0
2.45	-0.115271	1.29333	-1.41842	0.6025	-0.469777	1.02525	0.00796895	0.101829	-0.115476	0.571226	-0.130809	0	0	-0.0681012	-0.137325	-0.167714	1.31794	-0.0976008	0	0	-0.503504	0.217666	0.330256	-0.110643	-0.577422	-0.127443	1.6779	0.4847	0	0	0.462495	-0.355556	0.477115	0.899345	0.647544	0	0
2.46	-0.105686	1.29143	-1.4285	0.601657	-0.479268	1.02702	-0.0120783	0.10188	-0.117196	0.554768	-0.128492	0	0	-0.0492907	-0.133458	-0.169476	1.31705	-0.0924895	0	0	-0.506635	0.214644	0.332013	-0.108271	-0.579355	-0.126584	1.6764	0.488031	0	0	0.463738	-0.353187	0.477325	0.895984	0.646052	0	0
2.47	-0.0948869	1.28716	-1.43999	0.600822	-0.488691	1.02893	-0.036176	0.101542	-0.120305	0.535172	-0.126938	0	0	-0.0340823	-0.12997	-0.172645	1.3109	-0.0883652	0	0	-0.512249	0.211584	0.332711	-0.103903	-0.585036	-0.120586	1.67537	0.469343	0	0	0.464571	-0.351962	0.476247	0.893686	0.644494	0	0
2.48	-0.081966	1.28367	-1.45366	0.600011	-0.498151	1.03073	-0.0597886	0.0998975	-0.124517	0.515588	-0.125585	0	0	-0.0187702	-0.126033	-0.177108	1.30053	-0.0854024	0	0	-0.516962	0.207496	0.333332	-0.100288	-0.587234	-0.117685	1.67415	0.467247	0	0	0.465557	-0.350561	0.474925	0.891076	0.643952	0	0
2.49	-0.0691081	1.28031	-1.46767	0.599221	-0.507717	1.03241	-0.083681	0.0978658	-0.129286	0.495291	-0.124545	0	0	-0.00472838	-0.12251	-0.183752	1.28554	-0.0822848	0	0	-0.521385	0.203124	0.3342	-0.0970548	-0.589384	-0.115292	1.67345	0.465972	0	0	0.465918	-0.349354	0.473125	0.889296	0.644848	0	0
2.5	-0.0569095	1.2771	-1.48152	0.598483	-0.517314	1.03394	-0.107329	0.0956439	-0.134053	0.474945	-0.12394	0	0	0.00813997	-0.119168	-0.191241	1.2661	-0.0787835	0	0	-0.525322	0.198776	0.334998	-0.0936394	-0.591226	-0.11272	1.67262	0.464495	0	0	0.465894	-0.348575	0.471296	0.887833	0.645494	0	0
2.51	-0.0444541	1.27464	-1.49519	0.597892	-0.526838	1.0353	-0.129753	0.0929476	-0.139366	0.455047	-0.123674	0	0	0.0211445	-0.115109	-0.197785	1.24307	-0.0757084	0	0	-0.52876	0.194421	0.335979	-0.0914801	-0.593176	-0.111389	1.67293	0.462951	0	0	0.466012	-0.347586	0.469839	0.887075	0.646886	0	0
2.52	-0.0339162	1.2732	-1.50698	0.597394	-0.536354	1.03641	-0.150802	0.0907368	-0.144325	0.435359	-0.123575	0	0	0.0343785	-0.111658	-0.205065	1.21691	-0.0733034	0	0	-0.530801	0.190619	0.336893	-0.0893547	-0.595071	-0.110128	1.67333	0.461598	0	0	0.465852	-0.34636	0.468071	0.886288	0.646627	0	0
2.53	-0.0260519	1.27335	-1.51628	0.596915	-0.545943	1.03721	-0.169363	0.0893435	-0.148478	0.417623	-0.121571	0	0	0.0484828	-0.109077	-0.213043	1.18819	-0.0709257	0	0	-0.530594	0.187287	0.338445	-0.0882742	-0.595724	-0.110505	1.67349	0.465042	0	0	0.465956	-0.344906	0.46716	0.88496	0.645459	0	0
2.54	-0.0182971	1.27132	-1.52493	0.596571	-0.555426	1.03803	-0.191405	0.0884257	-0.152676	0.396178	-0.123245	0	0	0.0591285	-0.106695	-0.222048	1.15536	-0.071446	0	0	-0.53244	0.184583	0.337893	-0.0843471	-0.598179	-0.106928	1.67302	0.463263	0	0	0.464749	-0.344445	0.46342	0.885319	0.645897	0	0
2.55	-0.0108525	1.27164	-1.53273	0.596378	-0.564922	1.03854	-0.2099	0.0874759	-0.155567	0.377572	-0.122817	0	0	0.0717376	-0.103384	-0.22975	1.11916	-0.0722963	0	0	-0.531904	0.181891	0.338116	-0.0829777	-0.599263	-0.106697	1.67328	0.466907	0	0	0.464626	-0.343298	0.461567	0.884972	0.645645	0	0
